<?xml version="1.0" encoding="UTF-8"?>
<svg id="Layer_1" data-name="Layer 1" xmlns="http://www.w3.org/2000/svg" viewBox="0 0 3202.35 912.53">
  <defs>
    <style>
      .cls-1 {
        fill: red;
        stroke-width: 20px;
      }

      .cls-1, .cls-2, .cls-3 {
        stroke: #000;
        stroke-miterlimit: 10;
      }

      .cls-4, .cls-3 {
        fill: #fff;
      }

      .cls-2, .cls-3 {
        stroke-width: 21px;
      }
    </style>
  </defs>
  <rect class="cls-4" width="3202.35" height="912.53" rx="122" ry="122"/>
  <g>
    <path d="M672.96,337.95l-37.38,74.34c-17.64-15.96-39.48-25.2-61.32-25.2-10.92,0-19.32,6.3-19.32,14.7,0,8.82,5.04,11.76,30.66,18.06,19.32,5.04,35.28,11.34,45.36,18.48,18.9,12.6,30.66,36.96,30.66,62.58,0,56.28-54.6,102.06-122.22,102.06-26.04,0-57.54-7.56-84.84-20.16-5.88-2.94-14.7-7.14-26.04-13.44l37.8-75.6c16.8,20.58,43.68,33.18,70.14,33.18,14.28,0,23.52-6.3,23.52-16.38s-7.98-15.54-26.46-19.74c-19.32-3.78-29.82-7.14-39.9-12.6-26.46-13.02-40.32-36.54-40.32-68.88,0-55.86,51.24-100.38,115.08-100.38,28.56,0,58.8,6.72,86.94,19.74,4.2,2.1,10.08,5.04,17.64,9.24Z"/>
    <path d="M808.62,399.69c-2.52,12.6-3.36,16.38-7.98,29.82l3.78,1.68c15.54-28.14,29.82-38.64,55.02-38.64,43.26,0,77.7,43.68,77.7,97.86,0,59.64-41.58,110.88-89.88,110.88-30.66,0-52.5-14.28-61.32-40.32l-3.36,1.26c.84,11.34,1.26,16.8,1.26,23.94,0,10.08-.84,20.58-2.1,32.34l-9.24,73.5h-97.44l36.12-292.32h97.44ZM841.38,495.87c0-15.54-9.66-26.88-22.68-26.88-14.28,0-26.04,14.7-26.04,32.34,0,15.54,9.24,26.04,23.1,26.04,15.12,0,25.62-13.02,25.62-31.5Z"/>
    <path d="M1204.26,493.35c0,61.74-52.5,107.94-121.8,107.94s-122.64-44.1-122.64-104.58,52.08-107.94,122.22-107.94,122.22,41.58,122.22,104.58ZM1108.08,493.35c0-15.96-10.5-27.72-24.36-27.72-15.12,0-27.72,14.28-27.72,31.5,0,15.96,10.5,27.72,25.2,27.72,15.54,0,26.88-13.44,26.88-31.5Z"/>
    <path d="M1343.69,472.35l-15.12,123.48h-97.02l15.12-123.48-25.2,2.52,9.66-76.86,23.94,4.2,8.82-68.88h97.02l-8.4,68.88,23.94-2.52-9.24,75.18-23.52-2.52Z"/>
    <path d="M1512.11,315.69h94.92c98.7,0,157.5,50.82,157.5,135.66,0,44.52-18.48,84.42-51.24,110.46-31.08,24.78-64.68,34.02-123.48,34.02h-112.14l34.44-280.14ZM1603.25,398.01l-13.86,114.66h14.28c33.6,0,60.48-28.14,60.48-63.84,0-29.4-20.58-50.82-48.3-50.82h-12.6Z"/>
    <path d="M1964.44,394.23l-11.76,96.6c-10.5-5.46-15.12-7.14-22.68-7.14-23.94,0-38.22,18.48-42.84,54.6l-7.14,57.54h-97.86l23.94-196.14h98.28c-2.94,13.86-4.2,18.48-10.92,34.86l4.2,2.1c18.06-32.76,32.76-44.1,54.6-44.1,3.36,0,6.3.42,12.18,1.68Z"/>
    <path d="M2225.67,493.35c0,61.74-52.5,107.94-121.8,107.94s-122.64-44.1-122.64-104.58,52.08-107.94,122.22-107.94,122.22,41.58,122.22,104.58ZM2129.49,493.35c0-15.96-10.5-27.72-24.36-27.72-15.12,0-27.72,14.28-27.72,31.5,0,15.96,10.5,27.72,25.2,27.72,15.54,0,26.88-13.44,26.88-31.5Z"/>
    <path d="M2368.47,399.69c-2.52,12.6-3.36,16.38-7.98,29.82l3.78,1.68c15.54-28.14,29.82-38.64,55.02-38.64,43.26,0,77.7,43.68,77.7,97.86,0,59.64-41.58,110.88-89.88,110.88-30.66,0-52.5-14.28-61.32-40.32l-3.36,1.26c.84,11.34,1.26,16.8,1.26,23.94,0,10.08-.84,20.58-2.1,32.34l-9.24,73.5h-97.44l36.12-292.32h97.44ZM2401.23,495.87c0-15.54-9.66-26.88-22.68-26.88-14.28,0-26.04,14.7-26.04,32.34,0,15.54,9.24,26.04,23.1,26.04,15.12,0,25.62-13.02,25.62-31.5Z"/>
  </g>
  <circle class="cls-1" cx="2623.74" cy="260.45" r="150.08"/>
  <ellipse class="cls-2" cx="2623.74" cy="791.95" rx="106.85" ry="10.21"/>
  <rect class="cls-3" x="2602.12" y="412.58" width="43.24" height="379.37"/>
</svg>