<?xml version="1.0" encoding="UTF-8"?>
<svg id="Layer_1" data-name="Layer 1" xmlns="http://www.w3.org/2000/svg" viewBox="0 0 2570.68 4779.74">
  <defs>
    <style>
      .cls-1 {
        stroke-width: 14px;
      }

      .cls-1, .cls-2, .cls-3, .cls-4 {
        stroke: #000;
      }

      .cls-1, .cls-2, .cls-4 {
        stroke-miterlimit: 10;
      }

      .cls-2 {
        fill: red;
      }

      .cls-2, .cls-3 {
        stroke-width: 36px;
      }

      .cls-3 {
        fill: #fff;
        stroke-linecap: round;
        stroke-linejoin: round;
      }

      .cls-4 {
        stroke-width: 21px;
      }
    </style>
  </defs>
  <ellipse class="cls-4" cx="1598.42" cy="4396.33" rx="723.96" ry="62.83"/>
  <g>
    <path d="M378.66,2516.99h253.8c173.7,0,261.9,108.9,261.9,250.2,0,187.19-99,367.2-344.7,367.2H247.26l131.4-617.4ZM504.66,2989.48h43.2c90,0,112.5-189.9,112.5-248.4,0-54-17.1-79.2-60.3-79.2h-25.2l-70.2,327.6Z"/>
    <path d="M955.55,2814.89c18-83.7,27.9-133.2,31.5-160.2h209.7c-.9,11.7-4.5,54.9-12.6,90.9,32.4-71.1,81.9-99,158.4-99l-45.9,207.9c-104.4-7.2-137.7,32.4-149.4,86.4l-40.5,193.5h-218.7l67.5-319.5Z"/>
    <path d="M1869.93,2856.28c0,70.21-27,289.8-303.3,289.8-171.9,0-233.1-88.2-233.1-205.2,0-128.7,72-297.9,294.3-297.9,183.6,0,242.1,105.3,242.1,213.3ZM1555.84,2976.88c0,30.6,5.4,43.2,24.3,43.2,45.9,0,69.3-186.3,69.3-210.6s-3.6-38.7-25.2-38.7c-45.9,0-68.4,177.3-68.4,206.1Z"/>
    <path d="M2100.32,3101.98l-40.5,191.7h-217.8l105.3-500.4c13.5-63,22.5-106.2,28.8-138.6h212.4c0,10.8-2.7,34.2-4.5,44.1,19.8-19.8,48.6-54.9,126.9-55.8,76.5-.9,132.3,50.4,132.3,167.4,0,185.4-89.1,335.7-240.3,335.7-43.2,0-85.5-12.6-102.6-44.1ZM2218.22,2815.79c0-22.5-4.5-36-21.6-36-41.4,0-71.1,171.89-71.1,199.79,0,24.3,5.4,34.2,22.5,34.2,41.4,0,70.2-162.9,70.2-198Z"/>
  </g>
  <rect class="cls-3" x="1522.65" y="841.18" width="151.53" height="3555.15"/>
  <circle class="cls-2" cx="1598.42" cy="767.77" r="607.92"/>
  <g>
    <path d="M372.38,2098.38c1.8,30.6,13.5,67.5,56.7,67.5,40.5,0,49.5-23.4,49.5-47.7,0-30.6-21.6-44.1-89.1-72-112.5-45.9-170.1-95.4-170.1-185.4,0-113.4,81.9-205.2,261.9-205.2,189.9,0,265.5,100.8,264.6,200.7h-209.7c-.9-27-9.9-62.1-47.7-62.1-26.1,0-39.6,16.2-39.6,37.8,0,23.4,15.3,34.2,80.1,59.4,151.2,58.5,186.3,121.5,186.3,198.9,0,132.3-108,215.1-286.2,215.1-198,0-269.1-101.7-268.2-207h211.5Z"/>
    <path d="M960.97,2256.78l-40.5,191.7h-217.8l105.3-500.4c13.5-63,22.5-106.2,28.8-138.6h212.4c0,10.8-2.7,34.2-4.5,44.1,19.8-19.8,48.6-54.9,126.9-55.8,76.5-.9,132.3,50.4,132.3,167.4,0,185.4-89.1,335.7-240.3,335.7-43.2,0-85.5-12.6-102.6-44.1ZM1078.87,1970.58c0-22.5-4.5-36-21.6-36-41.4,0-71.1,171.89-71.1,199.79,0,24.3,5.4,34.21,22.5,34.21,41.4,0,70.2-162.9,70.2-198Z"/>
    <path d="M1878.06,2011.08c0,70.21-27,289.8-303.3,289.8-171.9,0-233.1-88.2-233.1-205.2,0-128.7,72-297.9,294.3-297.9,183.6,0,242.1,105.3,242.1,213.3ZM1563.96,2131.68c0,30.6,5.4,43.2,24.3,43.2,45.9,0,69.3-186.3,69.3-210.6s-3.6-38.7-25.2-38.7c-45.9,0-68.4,177.3-68.4,206.1Z"/>
    <path d="M1942.85,1809.48h59.4l26.1-115.2h212.4l-25.2,115.2h64.8l-28.8,135h-64.8l-38.7,176.4c-6.3,27-.9,36.9,25.2,36.9,13.5,0,23.4-.9,32.4-1.8l-27,126.9c-35.1,10.8-80.1,15.3-108.9,15.3-129.6,0-166.5-43.2-141.3-162l41.4-191.7h-55.8l28.8-135Z"/>
  </g>
  <path class="cls-1" d="M1435.02,3016.56c-4.11,71.58,68.6,115.86,73.32,117.82,25.63,10.66,83.45,7.44,97.32,7.23,36.29-.54,87.74-17.37,99.86-24.98,85.02-53.39-21.95-256.31-35.67-288.33,0,0-18.02,187.27-96.97,194.68-47.69,4.48-45.28-85.69-50.23-95.6-15.74-31.47-84.47,34.18-87.63,89.18Z"/>
</svg>